{
	"asset":{
		"generator":"Khronos glTF Blender I/O v4.1.63",
		"version":"2.0"
	},
	"scene":0,
	"scenes":[
		{
			"name":"Scene",
			"nodes":[
				0,
				1
			]
		}
	],
	"nodes":[
		{
			"mesh":0,
			"name":"Mesh_0",
			"translation":[
				0,
				0,
				16.90467071533203
			]
		},
		{
			"mesh":1,
			"name":"Plane",
			"scale":[
				1.0688360929489136,
				1,
				1
			],
			"translation":[
				-0.012462392449378967,
				0.18233811855316162,
				0.021978020668029785
			]
		}
	],
	"materials":[
		{
			"name":"Material_0",
			"pbrMetallicRoughness":{
				"baseColorTexture":{
					"index":0
				},
				"metallicFactor":0
			}
		},
		{
			"doubleSided":true,
			"name":"Material.001",
			"pbrMetallicRoughness":{
				"baseColorTexture":{
					"index":1
				},
				"metallicFactor":0,
				"roughnessFactor":0.5
			}
		}
	],
	"meshes":[
		{
			"name":"Mesh_0",
			"primitives":[
				{
					"attributes":{
						"POSITION":0,
						"NORMAL":1,
						"TEXCOORD_0":2,
						"COLOR_0":3
					},
					"indices":4,
					"material":0
				},
				{
					"attributes":{
						"POSITION":5,
						"NORMAL":6,
						"TEXCOORD_0":7,
						"COLOR_0":8
					},
					"indices":9,
					"material":0
				}
			]
		},
		{
			"name":"Plane.003",
			"primitives":[
				{
					"attributes":{
						"POSITION":10,
						"NORMAL":11,
						"TEXCOORD_0":12
					},
					"indices":13,
					"material":1
				}
			]
		}
	],
	"textures":[
		{
			"sampler":0,
			"source":0
		},
		{
			"sampler":0,
			"source":1
		}
	],
	"images":[
		{
			"mimeType":"image/png",
			"name":"figureTexture",
			"uri":"figureTexture.png"
		},
		{
			"mimeType":"image/png",
			"name":"figureBottom",
			"uri":"figureBottom.png"
		}
	],
	"accessors":[
		{
			"bufferView":0,
			"componentType":5126,
			"count":15583,
			"max":[
				1.2446839809417725,
				2.5894503593444824,
				-15.227079391479492
			],
			"min":[
				-1.1292881965637207,
				0.18467529118061066,
				-18.619234085083008
			],
			"type":"VEC3"
		},
		{
			"bufferView":1,
			"componentType":5126,
			"count":15583,
			"type":"VEC3"
		},
		{
			"bufferView":2,
			"componentType":5126,
			"count":15583,
			"type":"VEC2"
		},
		{
			"bufferView":3,
			"componentType":5126,
			"count":15583,
			"type":"VEC3"
		},
		{
			"bufferView":4,
			"componentType":5123,
			"count":88503,
			"type":"SCALAR"
		},
		{
			"bufferView":5,
			"componentType":5126,
			"count":299,
			"max":[
				0.9577125906944275,
				0.18467529118061066,
				-16.008665084838867
			],
			"min":[
				-1.0364112854003906,
				0.18467529118061066,
				-18.006999969482422
			],
			"type":"VEC3"
		},
		{
			"bufferView":6,
			"componentType":5126,
			"count":299,
			"type":"VEC3"
		},
		{
			"bufferView":7,
			"componentType":5126,
			"count":299,
			"type":"VEC2"
		},
		{
			"bufferView":8,
			"componentType":5126,
			"count":299,
			"type":"VEC3"
		},
		{
			"bufferView":9,
			"componentType":5123,
			"count":891,
			"type":"SCALAR"
		},
		{
			"bufferView":10,
			"componentType":5126,
			"count":303,
			"max":[
				0.9102807641029358,
				0,
				0.8673964738845825
			],
			"min":[
				-0.9606747031211853,
				0,
				-1
			],
			"type":"VEC3"
		},
		{
			"bufferView":11,
			"componentType":5126,
			"count":303,
			"type":"VEC3"
		},
		{
			"bufferView":12,
			"componentType":5126,
			"count":303,
			"type":"VEC2"
		},
		{
			"bufferView":13,
			"componentType":5123,
			"count":903,
			"type":"SCALAR"
		}
	],
	"bufferViews":[
		{
			"buffer":0,
			"byteLength":186996,
			"byteOffset":0,
			"target":34962
		},
		{
			"buffer":0,
			"byteLength":186996,
			"byteOffset":186996,
			"target":34962
		},
		{
			"buffer":0,
			"byteLength":124664,
			"byteOffset":373992,
			"target":34962
		},
		{
			"buffer":0,
			"byteLength":186996,
			"byteOffset":498656,
			"target":34962
		},
		{
			"buffer":0,
			"byteLength":177006,
			"byteOffset":685652,
			"target":34963
		},
		{
			"buffer":0,
			"byteLength":3588,
			"byteOffset":862660,
			"target":34962
		},
		{
			"buffer":0,
			"byteLength":3588,
			"byteOffset":866248,
			"target":34962
		},
		{
			"buffer":0,
			"byteLength":2392,
			"byteOffset":869836,
			"target":34962
		},
		{
			"buffer":0,
			"byteLength":3588,
			"byteOffset":872228,
			"target":34962
		},
		{
			"buffer":0,
			"byteLength":1782,
			"byteOffset":875816,
			"target":34963
		},
		{
			"buffer":0,
			"byteLength":3636,
			"byteOffset":877600,
			"target":34962
		},
		{
			"buffer":0,
			"byteLength":3636,
			"byteOffset":881236,
			"target":34962
		},
		{
			"buffer":0,
			"byteLength":2424,
			"byteOffset":884872,
			"target":34962
		},
		{
			"buffer":0,
			"byteLength":1806,
			"byteOffset":887296,
			"target":34963
		}
	],
	"samplers":[
		{
			"magFilter":9729,
			"minFilter":9987
		}
	],
	"buffers":[
		{
			"byteLength":889104,
			"uri":"figureModel.bin"
		}
	]
}
